<mxfile host="app.diagrams.net" modified="2024-03-16T11:25:55.546Z" agent="Mozilla/5.0 (Windows NT 10.0; Win64; x64) AppleWebKit/537.36 (KHTML, like Gecko) Chrome/120.0.0.0 YaBrowser/24.1.0.0 Safari/537.36" etag="KXw-y1fUplFTyvyVLHNx" version="24.0.7" type="device">
  <diagram name="Страница — 1" id="dnA5IYjh07y0FrbYYck3">
    <mxGraphModel dx="670" dy="613" grid="1" gridSize="10" guides="1" tooltips="1" connect="1" arrows="1" fold="1" page="1" pageScale="1" pageWidth="827" pageHeight="1169" math="0" shadow="0">
      <root>
        <mxCell id="0" />
        <mxCell id="1" parent="0" />
        <mxCell id="80_0LYbw5Qsc0X3aQ-sq-9" value="" style="ellipse;whiteSpace=wrap;html=1;" parent="1" vertex="1">
          <mxGeometry x="257.5" y="390" width="145" height="100" as="geometry" />
        </mxCell>
        <mxCell id="80_0LYbw5Qsc0X3aQ-sq-8" value="" style="ellipse;whiteSpace=wrap;html=1;" parent="1" vertex="1">
          <mxGeometry x="341" y="290" width="145" height="100" as="geometry" />
        </mxCell>
        <mxCell id="80_0LYbw5Qsc0X3aQ-sq-7" value="" style="ellipse;whiteSpace=wrap;html=1;" parent="1" vertex="1">
          <mxGeometry x="252.5" y="70" width="145" height="100" as="geometry" />
        </mxCell>
        <mxCell id="80_0LYbw5Qsc0X3aQ-sq-1" value="Учитель математики" style="shape=umlActor;verticalLabelPosition=bottom;verticalAlign=top;html=1;outlineConnect=0;fillColor=#0050ef;strokeColor=#001DBC;fontColor=#ffffff;" parent="1" vertex="1">
          <mxGeometry x="180" y="240" width="40" height="80" as="geometry" />
        </mxCell>
        <mxCell id="80_0LYbw5Qsc0X3aQ-sq-3" value="&lt;font style=&quot;font-size: 14px;&quot;&gt;Выбор типа &lt;br&gt;математической &lt;br&gt;задачи&lt;/font&gt;" style="text;html=1;align=center;verticalAlign=middle;resizable=0;points=[];autosize=1;strokeColor=none;fillColor=none;" parent="1" vertex="1">
          <mxGeometry x="257.5" y="90" width="130" height="60" as="geometry" />
        </mxCell>
        <mxCell id="80_0LYbw5Qsc0X3aQ-sq-4" value="&lt;font style=&quot;font-size: 14px;&quot;&gt;Сгенерированная&lt;br&gt;&amp;nbsp;задача&lt;/font&gt;" style="text;html=1;align=center;verticalAlign=middle;resizable=0;points=[];autosize=1;strokeColor=none;fillColor=none;" parent="1" vertex="1">
          <mxGeometry x="344" y="315" width="140" height="50" as="geometry" />
        </mxCell>
        <mxCell id="80_0LYbw5Qsc0X3aQ-sq-6" value="&lt;font style=&quot;font-size: 14px;&quot;&gt;Ответ к задаче&amp;nbsp;&lt;/font&gt;&lt;div style=&quot;font-size: 14px;&quot;&gt;&lt;font style=&quot;font-size: 14px;&quot;&gt;и график,&amp;nbsp;&lt;/font&gt;&lt;/div&gt;&lt;div style=&quot;font-size: 14px;&quot;&gt;&lt;font style=&quot;font-size: 14px;&quot;&gt;соответствующий&amp;nbsp;&lt;/font&gt;&lt;/div&gt;&lt;div style=&quot;font-size: 14px;&quot;&gt;&lt;font style=&quot;font-size: 14px;&quot;&gt;задаче&lt;/font&gt;&lt;/div&gt;" style="text;html=1;align=center;verticalAlign=middle;resizable=0;points=[];autosize=1;strokeColor=none;fillColor=none;" parent="1" vertex="1">
          <mxGeometry x="260" y="400" width="140" height="80" as="geometry" />
        </mxCell>
        <mxCell id="80_0LYbw5Qsc0X3aQ-sq-10" value="" style="endArrow=classic;html=1;rounded=0;" parent="1" edge="1">
          <mxGeometry width="50" height="50" relative="1" as="geometry">
            <mxPoint x="230" y="310" as="sourcePoint" />
            <mxPoint x="327.6" y="335" as="targetPoint" />
            <Array as="points" />
          </mxGeometry>
        </mxCell>
        <mxCell id="80_0LYbw5Qsc0X3aQ-sq-11" value="" style="endArrow=classic;html=1;rounded=0;exitX=0.635;exitY=1.12;exitDx=0;exitDy=0;exitPerimeter=0;" parent="1" edge="1" source="nROjc7URCbMNe--cZp4K-1">
          <mxGeometry width="50" height="50" relative="1" as="geometry">
            <mxPoint x="227.5" y="360" as="sourcePoint" />
            <mxPoint x="257.5" y="410" as="targetPoint" />
          </mxGeometry>
        </mxCell>
        <mxCell id="nROjc7URCbMNe--cZp4K-1" value="&lt;font style=&quot;font-size: 14px;&quot;&gt;Учитель&lt;/font&gt;" style="text;html=1;align=center;verticalAlign=middle;resizable=0;points=[];autosize=1;strokeColor=none;fillColor=none;" parent="1" vertex="1">
          <mxGeometry x="160" y="320" width="80" height="30" as="geometry" />
        </mxCell>
        <mxCell id="b-VBWVZO92x_PrExJqy0-3" value="" style="ellipse;whiteSpace=wrap;html=1;" vertex="1" parent="1">
          <mxGeometry x="339" y="170" width="145" height="100" as="geometry" />
        </mxCell>
        <mxCell id="b-VBWVZO92x_PrExJqy0-4" value="&lt;font style=&quot;font-size: 14px;&quot;&gt;Ввод своей&amp;nbsp;&lt;/font&gt;&lt;div style=&quot;font-size: 14px;&quot;&gt;&lt;font style=&quot;font-size: 14px;&quot;&gt;математической&amp;nbsp;&lt;/font&gt;&lt;/div&gt;&lt;div style=&quot;font-size: 14px;&quot;&gt;&lt;font style=&quot;font-size: 14px;&quot;&gt;задачи&lt;/font&gt;&lt;/div&gt;" style="text;html=1;align=center;verticalAlign=middle;resizable=0;points=[];autosize=1;strokeColor=none;fillColor=none;" vertex="1" parent="1">
          <mxGeometry x="347" y="190" width="130" height="60" as="geometry" />
        </mxCell>
        <mxCell id="b-VBWVZO92x_PrExJqy0-5" value="" style="endArrow=classic;html=1;rounded=0;" edge="1" parent="1">
          <mxGeometry width="50" height="50" relative="1" as="geometry">
            <mxPoint x="210" y="230" as="sourcePoint" />
            <mxPoint x="260" y="170" as="targetPoint" />
          </mxGeometry>
        </mxCell>
        <mxCell id="b-VBWVZO92x_PrExJqy0-9" value="" style="endArrow=classic;html=1;rounded=0;" edge="1" parent="1">
          <mxGeometry width="50" height="50" relative="1" as="geometry">
            <mxPoint x="230" y="260" as="sourcePoint" />
            <mxPoint x="330" y="240" as="targetPoint" />
            <Array as="points" />
          </mxGeometry>
        </mxCell>
      </root>
    </mxGraphModel>
  </diagram>
</mxfile>
